<?xml version="1.0" standalone="no"?>
<!DOCTYPE svg PUBLIC "-//W3C//DTD SVG 20010904//EN"
 "http://www.w3.org/TR/2001/REC-SVG-20010904/DTD/svg10.dtd">
<svg version="1.0" xmlns="http://www.w3.org/2000/svg"
 width="542.000000pt" height="542.000000pt" viewBox="0 0 542.000000 542.000000"
 preserveAspectRatio="xMidYMid meet">
<metadata>
Created by potrace 1.11, written by Peter Selinger 2001-2013
</metadata>
<g transform="translate(0.000000,542.000000) scale(0.100000,-0.100000)"
fill="#000000" stroke="none">
<path d="M2392 5223 c-6 -15 -24 -50 -40 -78 -23 -40 -203 -362 -307 -550 -12
-22 -32 -58 -45 -80 -12 -22 -32 -57 -42 -78 -26 -49 -31 -51 -86 -38 -26 6
-58 13 -72 15 -63 10 -110 19 -175 31 -68 14 -87 17 -190 35 -27 5 -63 12 -80
15 -89 17 -355 65 -383 69 l-34 5 7 -52 c4 -29 9 -59 10 -67 3 -16 11 -81 21
-157 3 -27 7 -59 9 -73 10 -68 25 -179 29 -215 17 -139 32 -248 47 -344 6 -35
8 -65 7 -67 -5 -4 -258 -124 -262 -124 -2 0 -46 -20 -97 -44 -96 -45 -148 -69
-396 -183 -79 -36 -143 -68 -143 -72 0 -3 50 -58 111 -121 61 -63 198 -206
305 -316 107 -111 210 -219 229 -240 l35 -38 -24 -40 c-12 -23 -94 -167 -181
-321 -87 -154 -187 -329 -221 -389 -35 -61 -62 -111 -61 -112 1 -1 18 -5 37
-8 19 -3 134 -24 255 -46 121 -22 234 -43 250 -45 17 -3 89 -17 160 -30 72
-14 146 -27 165 -30 29 -4 67 -12 103 -21 4 -1 11 -2 15 -3 4 0 8 -9 8 -18 0
-10 4 -45 8 -78 5 -33 9 -73 11 -90 2 -16 6 -43 8 -60 3 -16 8 -51 11 -77 3
-27 9 -69 12 -95 3 -27 7 -59 9 -73 2 -14 7 -52 11 -85 3 -33 8 -68 10 -79 2
-10 6 -44 9 -75 4 -31 8 -63 10 -71 2 -8 7 -46 10 -85 4 -38 10 -73 14 -77 3
-3 26 4 51 16 25 12 74 34 110 50 36 16 116 53 179 83 62 29 114 53 116 53 1
0 47 21 101 46 55 25 128 59 164 76 36 16 88 41 115 54 28 13 55 24 61 24 7 0
81 -72 165 -161 85 -88 185 -193 223 -232 37 -40 120 -127 184 -194 64 -68
119 -120 123 -115 3 4 18 27 31 52 14 25 70 124 125 220 54 96 151 266 214
378 l114 202 40 -6 c22 -3 96 -17 165 -30 69 -14 139 -27 155 -29 17 -3 86
-16 155 -30 243 -46 395 -75 433 -81 l38 -5 -6 43 c-9 67 -14 108 -20 170 -4
32 -8 66 -9 75 -2 10 -7 50 -12 88 -4 39 -8 72 -9 75 -1 3 -5 34 -9 70 -4 36
-9 76 -11 90 -2 14 -6 50 -10 80 -3 30 -8 73 -11 95 -11 77 -12 90 -18 140
l-6 50 82 37 c46 21 153 70 238 108 85 39 169 77 185 85 64 29 164 74 240 110
44 20 97 44 118 52 20 8 37 18 37 22 0 6 -60 70 -244 261 -215 224 -421 443
-428 453 -3 5 4 26 17 46 13 20 65 110 115 201 51 91 102 181 113 200 11 19
41 73 67 120 26 47 75 133 108 192 l60 106 -62 11 c-33 6 -72 13 -86 16 -26 5
-277 51 -320 58 -32 6 -407 76 -440 82 -14 3 -39 8 -56 11 -17 3 -31 11 -31
17 -1 17 -10 99 -22 182 -5 39 -12 97 -16 130 -3 33 -7 71 -10 85 -2 14 -7 43
-9 65 -12 98 -16 127 -30 235 -9 63 -19 140 -22 170 -10 85 -10 85 -27 82 -8
-1 -50 -19 -94 -38 -43 -20 -132 -61 -198 -91 -66 -30 -142 -65 -170 -78 -67
-32 -179 -83 -240 -110 -27 -13 -81 -37 -120 -55 l-69 -32 -106 110 c-58 61
-206 214 -330 342 -124 128 -227 235 -230 239 -3 3 -12 12 -21 19 -15 11 -18
9 -27 -15z m751 -737 c17 -18 112 -116 209 -218 l178 -185 112 -22 c62 -11
124 -23 138 -26 14 -3 84 -16 155 -30 179 -33 195 -37 199 -44 2 -3 7 -35 10
-71 4 -36 11 -92 16 -125 5 -33 11 -82 15 -110 3 -27 8 -66 11 -85 7 -55 12
-91 18 -148 4 -30 12 -59 19 -66 147 -149 412 -430 410 -435 -1 -4 -28 -54
-61 -112 -65 -114 -87 -154 -174 -309 -62 -110 -64 -120 -42 -234 2 -10 6 -44
10 -75 3 -31 8 -64 10 -75 2 -10 6 -44 9 -75 3 -31 8 -65 10 -76 2 -11 7 -49
11 -85 3 -36 8 -69 11 -73 4 -7 -70 -44 -266 -133 -36 -16 -118 -54 -184 -84
l-119 -55 -46 -85 c-26 -47 -91 -166 -146 -264 l-99 -178 -36 5 c-20 3 -85 15
-146 26 -60 12 -121 23 -134 26 -14 2 -47 9 -75 14 -28 6 -62 12 -76 15 -14 2
-43 7 -65 11 -22 4 -48 9 -59 11 -10 2 -95 -32 -190 -75 -94 -43 -211 -97
-261 -120 -49 -23 -99 -46 -109 -52 -17 -10 -31 0 -110 83 -50 52 -146 152
-213 222 -68 70 -133 129 -145 132 -13 2 -48 8 -78 14 -30 6 -64 12 -75 14
-11 2 -110 21 -220 41 -110 21 -203 40 -207 44 -3 3 -9 33 -13 66 -3 33 -10
89 -15 125 -5 36 -12 88 -15 115 -3 28 -8 66 -11 85 -3 19 -7 55 -10 80 -3 25
-7 54 -9 65 -2 11 -4 29 -4 40 -1 11 -38 59 -83 107 -283 296 -333 349 -336
357 -2 5 63 126 143 270 141 251 147 263 140 303 -11 71 -20 143 -31 233 -7
68 -35 272 -40 296 -5 28 -29 15 376 201 180 82 190 88 219 143 15 28 45 82
66 120 82 151 154 282 176 320 l22 41 61 -13 c34 -7 72 -15 86 -17 14 -2 72
-14 130 -25 58 -12 116 -23 130 -26 30 -6 93 -19 100 -20 94 -23 102 -21 270
58 52 25 118 55 145 67 201 92 241 110 248 110 4 0 22 -15 40 -34z"/>
</g>
</svg>
